<svg xmlns="http://www.w3.org/2000/svg" viewBox="0 0 256 256">
  <path d="M128 16C87.4 16 54 49.4 54 90c0 58 74 150 74 150s74-92 74-150c0-40.6-33.4-74-74-74z" fill="#2196F3"/>
  <circle cx="128" cy="90" r="50" fill="#FF9800"/>
  <path d="M128 60c-8.8 0-16 7.2-16 16 0 4.4 3.6 8 8 8s8-3.6 8-8c0-0.1 0.1-0.1 0.1-0.1s0.1 0.1 0.1 0.1c0 2.2-1.8 4-4 4-2.2 0-4 1.8-4 4v8c0 4.4 3.6 8 8 8s8-3.6 8-8v-2.3c6.3-3.4 10-10.1 10-17.7 0-8.8-7.2-16-16-16zm0 52c-4.4 0-8 3.6-8 8s3.6 8 8 8 8-3.6 8-8-3.6-8-8-8z" fill="#FFF"/>
</svg>